<?xml version="1.0" encoding="utf-8"?>
<!-- Generator: Adobe Illustrator 21.0.0, SVG Export Plug-In . SVG Version: 6.00 Build 0)  -->
<svg version="1.1" id="Layer_2" xmlns="http://www.w3.org/2000/svg" xmlns:xlink="http://www.w3.org/1999/xlink" x="0px" y="0px"
	 viewBox="0 0 88 95" enable-background="new 0 0 88 95" xml:space="preserve">
<g>
	<linearGradient id="SVGID_1_" gradientUnits="userSpaceOnUse" x1="0" y1="47.5" x2="88" y2="47.5">
		<stop  offset="0.1683" style="stop-color:#00FFEF"/>
		<stop  offset="0.896" style="stop-color:#FF60ED"/>
	</linearGradient>
	<path fill="url(#SVGID_1_)" d="M88,54.735V5.942V0h-5.945H5.945H0v5.942v83.116V95h5.945h48.907h12.591h14.614h0H88h0v-5.942
		V71.307L88,54.735L88,54.735z M5.945,89.058V5.942h76.111v40.863c0,9.795-3.404,19.286-9.631,26.849l0,0
		c-8.029,9.753-20.002,15.404-32.638,15.404H5.945z"/>
	<path fill="#0068FF" d="M23.443,32.135c-1.416,0-2.761-0.22-4.034-0.659c-1.273-0.44-2.399-1.099-3.379-1.978l2.441-2.92
		c1.582,1.265,3.292,1.898,5.13,1.898c0.587,0,1.036-0.094,1.344-0.282c0.309-0.188,0.463-0.455,0.463-0.801v-0.045
		c0-0.165-0.038-0.312-0.113-0.44c-0.075-0.128-0.214-0.251-0.418-0.372c-0.203-0.12-0.475-0.236-0.814-0.35
		c-0.339-0.113-0.779-0.229-1.322-0.35c-0.844-0.195-1.627-0.41-2.351-0.643c-0.723-0.233-1.352-0.533-1.887-0.902
		c-0.535-0.368-0.957-0.827-1.266-1.376c-0.309-0.548-0.463-1.229-0.463-2.041v-0.045c0-0.736,0.139-1.414,0.418-2.03
		s0.685-1.15,1.221-1.601c0.535-0.451,1.178-0.8,1.932-1.048c0.753-0.248,1.605-0.372,2.554-0.372c1.356,0,2.565,0.178,3.627,0.534
		c1.062,0.356,2.022,0.883,2.881,1.58l-2.192,3.104c-0.723-0.512-1.465-0.899-2.226-1.163c-0.761-0.264-1.495-0.396-2.204-0.396
		c-0.527,0-0.923,0.098-1.186,0.294c-0.264,0.195-0.396,0.436-0.396,0.722v0.045c0,0.18,0.041,0.338,0.124,0.473
		c0.083,0.135,0.226,0.259,0.43,0.372c0.203,0.113,0.482,0.225,0.836,0.338c0.354,0.113,0.802,0.23,1.345,0.35
		c0.904,0.195,1.721,0.425,2.452,0.688c0.73,0.263,1.352,0.583,1.864,0.958c0.512,0.376,0.904,0.831,1.175,1.364
		c0.272,0.534,0.407,1.169,0.407,1.905v0.045c0,0.811-0.155,1.533-0.463,2.165c-0.309,0.632-0.742,1.169-1.299,1.612
		c-0.557,0.444-1.228,0.782-2.011,1.015C25.281,32.019,24.407,32.135,23.443,32.135z"/>
	<path fill="#0068FF" d="M40.663,15.938h4.226l6.735,15.926h-4.701l-1.152-2.824H39.67l-1.13,2.824h-4.61L40.663,15.938z
		 M44.505,25.652l-1.763-4.496l-1.785,4.496H44.505z"/>
	<path fill="#0068FF" d="M57.635,16.051h7.481c1.22,0,2.251,0.151,3.096,0.452c0.843,0.301,1.529,0.723,2.056,1.265
		c0.934,0.904,1.401,2.131,1.401,3.682v0.045c0,1.22-0.293,2.229-0.881,3.027c-0.587,0.798-1.378,1.408-2.372,1.83l3.773,5.512
		h-5.062l-3.186-4.789h-0.045H62.02v4.789h-4.385V16.051z M64.912,23.641c0.754,0,1.334-0.169,1.741-0.508
		c0.406-0.339,0.611-0.794,0.611-1.367v-0.045c0-0.633-0.212-1.103-0.633-1.412c-0.423-0.309-1.002-0.463-1.741-0.463h-2.87v3.795
		H64.912z"/>
	<path fill="#0068FF" d="M16.031,39.696h12.655v3.84h-8.27v2.666h7.48v3.659h-7.48v5.648h-4.384V39.696z"/>
	<path fill="#0068FF" d="M40.664,39.583h4.226l6.734,15.926h-4.7l-1.152-2.824H39.67l-1.13,2.824h-4.61L40.664,39.583z
		 M44.506,49.297l-1.763-4.496l-1.786,4.496H44.506z"/>
	<path fill="#0068FF" d="M57.635,39.696h7.481c1.22,0,2.251,0.151,3.096,0.452c0.843,0.301,1.529,0.723,2.056,1.265
		c0.934,0.904,1.401,2.131,1.401,3.682v0.045c0,1.22-0.293,2.229-0.881,3.027c-0.587,0.798-1.378,1.408-2.372,1.83l3.773,5.512
		h-5.062L63.94,50.72h-0.045H62.02v4.789h-4.385V39.696z M64.912,47.286c0.754,0,1.334-0.169,1.741-0.508
		c0.406-0.339,0.611-0.794,0.611-1.367v-0.045c0-0.633-0.212-1.103-0.633-1.412c-0.423-0.309-1.002-0.463-1.741-0.463h-2.87v3.795
		H64.912z"/>
	<path fill="#0068FF" d="M22.765,63.228h4.226l6.734,15.926h-4.7l-1.152-2.824h-6.102l-1.13,2.824h-4.61L22.765,63.228z
		 M26.607,72.942l-1.763-4.496l-1.786,4.496H26.607z"/>
	<path fill="#0068FF" d="M37.636,75.969l7.932-8.923h-7.661v-3.705h13.718v3.185l-7.932,8.923h7.932v3.705H37.636V75.969z"/>
</g>
</svg>
